<?xml version="1.0" standalone="no"?>
<!DOCTYPE svg PUBLIC "-//W3C//DTD SVG 20010904//EN"
 "http://www.w3.org/TR/2001/REC-SVG-20010904/DTD/svg10.dtd">
<svg version="1.0" xmlns="http://www.w3.org/2000/svg"
 width="720.000000pt" height="1444.000000pt" viewBox="0 0 720.000000 1444.000000"
 preserveAspectRatio="xMidYMid meet">
<metadata>
Created by potrace 1.16, written by Peter Selinger 2001-2019
</metadata>
<g transform="translate(0.000000,1444.000000) scale(0.100000,-0.100000)"
fill="#000000" stroke="none">
<path d="M1004 14420 c-466 -62 -805 -350 -913 -777 -42 -166 -46 -230 -46
-700 0 -248 -3 -449 -7 -447 -3 2 -13 1 -22 -2 -14 -5 -16 -38 -16 -275 0
-257 1 -269 20 -279 16 -8 19 -21 19 -63 0 -28 2 -132 6 -229 l5 -177 -25 -17
-25 -16 0 -499 0 -499 25 -16 c25 -16 25 -19 25 -145 0 -128 0 -130 -25 -141
l-25 -11 0 -513 c0 -503 0 -514 20 -524 20 -11 20 -21 20 -3933 0 -2652 3
-3967 11 -4058 25 -324 115 -552 292 -736 179 -186 407 -292 693 -322 66 -7
932 -10 2579 -10 2684 0 2598 -2 2786 53 350 102 603 354 704 701 58 202 55
-60 55 4485 0 4159 0 4169 20 4180 20 11 20 21 20 835 0 776 -1 824 -17 829
-17 5 -18 68 -18 1123 0 1195 -1 1214 -50 1411 -28 109 -97 259 -159 346 -65
91 -210 224 -301 276 -106 60 -220 104 -340 132 l-100 23 -2575 1 c-1416 1
-2602 -2 -2636 -6z m5331 -363 c216 -63 362 -204 430 -417 10 -30 26 -72 36
-92 18 -36 19 -209 19 -6241 0 -6196 0 -6205 -20 -6210 -17 -4 -20 -14 -20
-69 -1 -285 -197 -529 -470 -583 -41 -8 -106 -24 -145 -35 -69 -20 -92 -20
-2470 -17 -1661 3 -2435 7 -2515 15 -189 18 -389 86 -492 167 -140 109 -245
306 -264 491 -5 48 -12 69 -25 77 -18 11 -19 186 -19 6204 l0 6193 46 87 c142
272 288 380 547 403 61 5 139 14 172 20 33 5 83 10 112 10 28 0 55 5 58 10 5
7 794 10 2483 8 2323 -3 2481 -4 2537 -21z"/>
</g>
</svg>
